<svg width="194" height="63" viewBox="0 0 194 63" fill="none" xmlns="http://www.w3.org/2000/svg">
<ellipse cx="31.5" cy="23.0773" rx="31.5" ry="20.4016" fill="#E9BB70"/>
<path d="M42.913 0L53.1924 11.0369H32.6337L42.913 0Z" fill="#E9BB70"/>
<path d="M18.2608 0L28.5401 11.0369H7.98146L18.2608 0Z" fill="#E9BB70"/>
<ellipse cx="32.1429" cy="43.4789" rx="30.8571" ry="19.5211" fill="#E9BB70"/>
<ellipse cx="30.8571" cy="30.1691" rx="3.85714" ry="21.2958" fill="#CC7917"/>
<ellipse cx="24.4286" cy="1.77465" rx="24.4286" ry="1.77465" transform="matrix(-1 0 0 1 56.5714 19.5211)" fill="#CC7917"/>
<ellipse cx="24.4286" cy="1.77465" rx="24.4286" ry="1.77465" transform="matrix(-1 0 0 1 56.5714 26.6198)" fill="#CC7917"/>
<ellipse cx="24.4286" cy="1.77465" rx="24.4286" ry="1.77465" transform="matrix(-1 0 0 1 56.5714 39.0422)" fill="#CC7917"/>
<path d="M93.5684 29.6211C93.2884 29.4062 92.8848 29.2988 92.3574 29.2988C91.6738 29.2988 91.1009 29.6211 90.6387 30.2656C90.1829 30.9102 89.9551 31.7891 89.9551 32.9023V38H88.3535V28H89.9551V30.0605H89.9941C90.222 29.3574 90.5703 28.8105 91.0391 28.4199C91.5078 28.0228 92.0319 27.8242 92.6113 27.8242C93.028 27.8242 93.347 27.8698 93.5684 27.9609V29.6211ZM99.4863 38.2344C98.0085 38.2344 96.8268 37.7689 95.9414 36.8379C95.0625 35.9004 94.623 34.6602 94.623 33.1172C94.623 31.4375 95.082 30.1257 96 29.1816C96.918 28.2376 98.1582 27.7656 99.7207 27.7656C101.212 27.7656 102.374 28.2246 103.207 29.1426C104.047 30.0605 104.467 31.3333 104.467 32.9609C104.467 34.556 104.014 35.8353 103.109 36.7988C102.211 37.7559 101.003 38.2344 99.4863 38.2344ZM99.6035 29.1133C98.5749 29.1133 97.7611 29.4648 97.1621 30.168C96.5632 30.8646 96.2637 31.8281 96.2637 33.0586C96.2637 34.2435 96.5664 35.1777 97.1719 35.8613C97.7773 36.5449 98.5879 36.8867 99.6035 36.8867C100.639 36.8867 101.433 36.5514 101.986 35.8809C102.546 35.2103 102.826 34.2565 102.826 33.0195C102.826 31.7695 102.546 30.806 101.986 30.1289C101.433 29.4518 100.639 29.1133 99.6035 29.1133ZM115.326 38H113.08L108.666 33.1953H108.627V38H107.025V23.1953H108.627V32.5801H108.666L112.865 28H114.965L110.326 32.8242L115.326 38ZM121.146 38.2344C119.669 38.2344 118.487 37.7689 117.602 36.8379C116.723 35.9004 116.283 34.6602 116.283 33.1172C116.283 31.4375 116.742 30.1257 117.66 29.1816C118.578 28.2376 119.818 27.7656 121.381 27.7656C122.872 27.7656 124.034 28.2246 124.867 29.1426C125.707 30.0605 126.127 31.3333 126.127 32.9609C126.127 34.556 125.674 35.8353 124.77 36.7988C123.871 37.7559 122.663 38.2344 121.146 38.2344ZM121.264 29.1133C120.235 29.1133 119.421 29.4648 118.822 30.168C118.223 30.8646 117.924 31.8281 117.924 33.0586C117.924 34.2435 118.227 35.1777 118.832 35.8613C119.438 36.5449 120.248 36.8867 121.264 36.8867C122.299 36.8867 123.093 36.5514 123.646 35.8809C124.206 35.2103 124.486 34.2565 124.486 33.0195C124.486 31.7695 124.206 30.806 123.646 30.1289C123.093 29.4518 122.299 29.1133 121.264 29.1133ZM135.502 37.541C134.734 38.0033 133.822 38.2344 132.768 38.2344C131.342 38.2344 130.189 37.7721 129.311 36.8477C128.438 35.9167 128.002 34.7122 128.002 33.2344C128.002 31.5872 128.474 30.2656 129.418 29.2695C130.362 28.2669 131.622 27.7656 133.197 27.7656C134.076 27.7656 134.851 27.9284 135.521 28.2539V29.8945C134.779 29.3737 133.985 29.1133 133.139 29.1133C132.117 29.1133 131.277 29.4811 130.619 30.2168C129.968 30.946 129.643 31.9062 129.643 33.0977C129.643 34.2695 129.949 35.194 130.561 35.8711C131.179 36.5482 132.006 36.8867 133.041 36.8867C133.913 36.8867 134.734 36.597 135.502 36.0176V37.541ZM142.104 38.2344C140.626 38.2344 139.444 37.7689 138.559 36.8379C137.68 35.9004 137.24 34.6602 137.24 33.1172C137.24 31.4375 137.699 30.1257 138.617 29.1816C139.535 28.2376 140.775 27.7656 142.338 27.7656C143.829 27.7656 144.991 28.2246 145.824 29.1426C146.664 30.0605 147.084 31.3333 147.084 32.9609C147.084 34.556 146.632 35.8353 145.727 36.7988C144.828 37.7559 143.62 38.2344 142.104 38.2344ZM142.221 29.1133C141.192 29.1133 140.378 29.4648 139.779 30.168C139.18 30.8646 138.881 31.8281 138.881 33.0586C138.881 34.2435 139.184 35.1777 139.789 35.8613C140.395 36.5449 141.205 36.8867 142.221 36.8867C143.256 36.8867 144.05 36.5514 144.604 35.8809C145.163 35.2103 145.443 34.2565 145.443 33.0195C145.443 31.7695 145.163 30.806 144.604 30.1289C144.05 29.4518 143.256 29.1133 142.221 29.1133ZM158.178 38H156.576V36.3008H156.537C155.795 37.5898 154.649 38.2344 153.1 38.2344C151.843 38.2344 150.837 37.7884 150.082 36.8965C149.333 35.998 148.959 34.7773 148.959 33.2344C148.959 31.5807 149.376 30.2559 150.209 29.2598C151.042 28.2637 152.152 27.7656 153.539 27.7656C154.913 27.7656 155.912 28.306 156.537 29.3867H156.576V23.1953H158.178V38ZM156.576 33.4785V32.0039C156.576 31.1966 156.309 30.513 155.775 29.9531C155.242 29.3932 154.564 29.1133 153.744 29.1133C152.768 29.1133 151.999 29.4714 151.439 30.1875C150.88 30.9036 150.6 31.8932 150.6 33.1562C150.6 34.3086 150.867 35.2201 151.4 35.8906C151.941 36.5547 152.663 36.8867 153.568 36.8867C154.46 36.8867 155.183 36.5645 155.736 35.9199C156.296 35.2754 156.576 34.4616 156.576 33.4785ZM169.457 33.4004H162.396C162.423 34.5137 162.722 35.373 163.295 35.9785C163.868 36.584 164.656 36.8867 165.658 36.8867C166.785 36.8867 167.82 36.5156 168.764 35.7734V37.2773C167.885 37.9154 166.723 38.2344 165.277 38.2344C163.865 38.2344 162.755 37.7819 161.947 36.877C161.14 35.9655 160.736 34.6862 160.736 33.0391C160.736 31.4831 161.176 30.2168 162.055 29.2402C162.94 28.2572 164.037 27.7656 165.346 27.7656C166.654 27.7656 167.667 28.1888 168.383 29.0352C169.099 29.8815 169.457 31.0566 169.457 32.5605V33.4004ZM167.816 32.043C167.81 31.1185 167.585 30.3991 167.143 29.8848C166.706 29.3704 166.098 29.1133 165.316 29.1133C164.561 29.1133 163.92 29.3835 163.393 29.9238C162.865 30.4642 162.54 31.1706 162.416 32.043H167.816Z" fill="#FCAF45"/>
</svg>
